SRRun01_grf
version=1
nRows=34
nColumns=19
inDegrees=no
endheader
time	ground_force_r_vx	ground_force_r_vy	ground_force_r_vz	ground_force_r_px	ground_force_r_py	ground_force_r_pz	ground_force_r_mx	ground_force_r_my	ground_force_r_mz	ground_force_l_vx	ground_force_l_vy	ground_force_l_vz	ground_force_l_px	ground_force_l_py	ground_force_l_pz	ground_force_l_mx	ground_force_l_my	ground_force_l_mz
    142.49700000	      0.00000000	      0.00000000	      0.00000000	      0.00000000	      0.00000000	      0.00000000	      0.00000000	      0.00000000	      0.00000000	    -78.87033221	   1107.95035932	    140.41383339	      0.84699578	      0.00000000	     -1.03953763	      0.00005712	     16.55691540	      0.00003806
    142.49800000	      0.00000000	      0.00000000	      0.00000000	      0.00000000	      0.00000000	      0.00000000	      0.00000000	      0.00000000	      0.00000000	    -70.17486555	   1115.78143864	    138.45335019	      0.84738917	      0.00000000	     -1.03680723	      0.00006062	     17.78563051	      0.00003906
    142.49900000	      0.00000000	      0.00000000	      0.00000000	      0.00000000	      0.00000000	      0.00000000	      0.00000000	      0.00000000	      0.00000000	    -56.82255660	   1123.98404422	    136.61898217	      0.84803202	      0.00000000	     -1.03421811	      0.00006349	     17.88872990	      0.00004022
    142.50000000	      0.00000000	      0.00000000	      0.00000000	      0.00000000	      0.00000000	      0.00000000	      0.00000000	      0.00000000	      0.00000000	    -39.59797392	   1132.67620545	    134.75865414	      0.84888192	      0.00000000	     -1.03179317	      0.00006558	     16.97205668	      0.00004143
    142.50100000	      0.00000000	      0.00000000	      0.00000000	      0.00000000	      0.00000000	      0.00000000	      0.00000000	      0.00000000	      0.00000000	    -19.47245623	   1141.90830530	    132.71432128	      0.84988770	      0.00000000	     -1.02953716	      0.00006680	     15.21993064	      0.00004259
    142.50200000	      0.00000000	      0.00000000	      0.00000000	      0.00000000	      0.00000000	      0.00000000	      0.00000000	      0.00000000	      0.00000000	      2.45009702	   1151.65977766	    130.34206212	      0.85099225	      0.00000000	     -1.02743536	      0.00006714	     12.87432701	      0.00004362
    142.50300000	      0.00000000	      0.00000000	      0.00000000	      0.00000000	      0.00000000	      0.00000000	      0.00000000	      0.00000000	      0.00000000	     24.99347229	   1161.84356800	    127.53217920	      0.85213542	      0.00000000	     -1.02545442	      0.00006668	     10.21109279	      0.00004446
    142.50400000	      0.00000000	      0.00000000	      0.00000000	      0.00000000	      0.00000000	      0.00000000	      0.00000000	      0.00000000	      0.00000000	     46.97212060	   1172.31746379	    124.22675937	      0.85325694	      0.00000000	     -1.02354580	      0.00006557	      7.51523163	      0.00004509
    142.50500000	      0.00000000	      0.00000000	      0.00000000	      0.00000000	      0.00000000	      0.00000000	      0.00000000	      0.00000000	      0.00000000	     67.25361704	   1182.90055373	    120.43210803	      0.85429921	      0.00000000	     -1.02165147	      0.00006399	      5.05707748	      0.00004551
    142.50600000	      0.00000000	      0.00000000	      0.00000000	      0.00000000	      0.00000000	      0.00000000	      0.00000000	      0.00000000	      0.00000000	     84.81755687	   1193.39250135	    116.22392191	      0.85520990	      0.00000000	     -1.01971145	      0.00006215	      3.07089900	      0.00004575
    142.50700000	      0.00000000	      0.00000000	      0.00000000	      0.00000000	      0.00000000	      0.00000000	      0.00000000	      0.00000000	      0.00000000	     98.80805276	   1203.59320904	    111.74395021	      0.85594443	      0.00000000	     -1.01767233	      0.00006026	      1.73722472	      0.00004588
    142.50800000	      0.00000000	      0.00000000	      0.00000000	      0.00000000	      0.00000000	      0.00000000	      0.00000000	      0.00000000	      0.00000000	    108.57718908	   1213.32080851	    107.18800521	      0.85646810	      0.00000000	     -1.01549547	      0.00005850	      1.16991278	      0.00004593
    142.50900000	      0.00000000	      0.00000000	      0.00000000	      0.00000000	      0.00000000	      0.00000000	      0.00000000	      0.00000000	      0.00000000	    113.71708672	   1222.42649314	    102.78630273	      0.85675789	      0.00000000	     -1.01316352	      0.00005704	      1.40865509	      0.00004598
    142.51000000	      0.00000000	      0.00000000	      0.00000000	      0.00000000	      0.00000000	      0.00000000	      0.00000000	      0.00000000	      0.00000000	    114.07874896	   1230.80524824	     98.77810561	      0.85680363	      0.00000000	     -1.01068395	      0.00005597	      2.41726646	      0.00004606
    142.51100000	      0.00000000	      0.00000000	      0.00000000	      0.00000000	      0.00000000	      0.00000000	      0.00000000	      0.00000000	      0.00000000	    109.77657123	   1238.40198215	     95.38341631	      0.85660845	      0.00000000	     -1.00808856	      0.00005537	      4.08785203	      0.00004620
    142.51200000	      0.00000000	      0.00000000	      0.00000000	      0.00000000	      0.00000000	      0.00000000	      0.00000000	      0.00000000	      0.00000000	    101.17817578	   1245.21292389	     92.77492257	      0.85618850	      0.00000000	     -1.00542916	      0.00005523	      6.25072742	      0.00004638
    142.51300000	      0.00000000	      0.00000000	      0.00000000	      0.00000000	      0.00000000	      0.00000000	      0.00000000	      0.00000000	      0.00000000	     88.87997864	   1251.28237255	     91.05349373	      0.85557180	      0.00000000	     -1.00276970	      0.00005552	      8.68966008	      0.00004661
    142.51400000	      0.00000000	      0.00000000	      0.00000000	      0.00000000	      0.00000000	      0.00000000	      0.00000000	      0.00000000	      0.00000000	     73.66963507	   1256.69503667	     90.23028365	      0.85479654	      0.00000000	     -1.00017634	      0.00005615	     11.16156066	      0.00004686
    142.51500000	      0.00000000	      0.00000000	      0.00000000	      0.00000000	      0.00000000	      0.00000000	      0.00000000	      0.00000000	      0.00000000	     56.47730633	   1261.56453998	     90.21796039	      0.85390866	      0.00000000	     -0.99770696	      0.00005701	     13.41924194	      0.00004710
    142.51600000	      0.00000000	      0.00000000	      0.00000000	      0.00000000	      0.00000000	      0.00000000	      0.00000000	      0.00000000	      0.00000000	     38.31852454	   1266.01925560	     90.83276075	      0.85295894	      0.00000000	     -0.99540188	      0.00005800	     15.23538306	      0.00004734
    142.51700000	      0.00000000	      0.00000000	      0.00000000	      0.00000000	      0.00000000	      0.00000000	      0.00000000	      0.00000000	      0.00000000	     20.23218820	   1270.18715902	     91.80797310	      0.85199984	      0.00000000	     -0.99327713	      0.00005901	     16.42547842	      0.00004758
    142.51800000	      0.00000000	      0.00000000	      0.00000000	      0.00000000	      0.00000000	      0.00000000	      0.00000000	      0.00000000	      0.00000000	      3.21775388	   1274.18157236	     92.81815670	      0.85108221	      0.00000000	     -0.99132147	      0.00005995	     16.86741491	      0.00004784
    142.51900000	      0.00000000	      0.00000000	      0.00000000	      0.00000000	      0.00000000	      0.00000000	      0.00000000	      0.00000000	      0.00000000	    -11.82411655	   1278.08955207	     93.51203426	      0.85025221	      0.00000000	     -0.98949752	      0.00006076	     16.51547902	      0.00004816
    142.52000000	      0.00000000	      0.00000000	      0.00000000	      0.00000000	      0.00000000	      0.00000000	      0.00000000	      0.00000000	      0.00000000	    -24.14338162	   1281.96436987	     93.55073076	      0.84954864	      0.00000000	     -0.98774692	      0.00006141	     15.40703856	      0.00004856
    142.52100000	      0.00000000	      0.00000000	      0.00000000	      0.00000000	      0.00000000	      0.00000000	      0.00000000	      0.00000000	      0.00000000	    -33.18138689	   1285.82298824	     92.64708598	      0.84900093	      0.00000000	     -0.98599858	      0.00006189	     13.66080329	      0.00004908
    142.52200000	      0.00000000	      0.00000000	      0.00000000	      0.00000000	      0.00000000	      0.00000000	      0.00000000	      0.00000000	      0.00000000	    -38.59785899	   1289.64859796	     90.60131512	      0.84862787	      0.00000000	     -0.98417883	      0.00006221	     11.46638723	      0.00004975
    142.52300000	      0.00000000	      0.00000000	      0.00000000	      0.00000000	      0.00000000	      0.00000000	      0.00000000	      0.00000000	      0.00000000	    -40.28241671	   1293.39738586	     87.32841761	      0.84843704	      0.00000000	     -0.98222208	      0.00006240	      9.06583034	      0.00005057
    142.52400000	      0.00000000	      0.00000000	      0.00000000	      0.00000000	      0.00000000	      0.00000000	      0.00000000	      0.00000000	      0.00000000	    -38.35000182	   1297.00805040	     82.87345901	      0.84842505	      0.00000000	     -0.98008019	      0.00006252	      6.72870166	      0.00005153
    142.52500000	      0.00000000	      0.00000000	      0.00000000	      0.00000000	      0.00000000	      0.00000000	      0.00000000	      0.00000000	      0.00000000	    -33.12083954	   1300.41228268	     77.41213838	      0.84857834	      0.00000000	     -0.97772966	      0.00006258	      4.72326176	      0.00005259
    142.52600000	      0.00000000	      0.00000000	      0.00000000	      0.00000000	      0.00000000	      0.00000000	      0.00000000	      0.00000000	      0.00000000	    -25.08683167	   1303.54442313	     71.23578160	      0.84887459	      0.00000000	     -0.97517536	      0.00006264	      3.28677677	      0.00005368
    142.52700000	      0.00000000	      0.00000000	      0.00000000	      0.00000000	      0.00000000	      0.00000000	      0.00000000	      0.00000000	      0.00000000	    -14.86754779	   1306.34884810	     64.72186060	      0.84928464	      0.00000000	     -0.97245046	      0.00006271	      2.59834816	      0.00005474
    142.52800000	      0.00000000	      0.00000000	      0.00000000	      0.00000000	      0.00000000	      0.00000000	      0.00000000	      0.00000000	      0.00000000	     -3.15996540	   1308.78439424	     58.29307965	      0.84977462	      0.00000000	     -0.96961260	      0.00006280	      2.75747599	      0.00005567
    142.52900000	      0.00000000	      0.00000000	      0.00000000	      0.00000000	      0.00000000	      0.00000000	      0.00000000	      0.00000000	      0.00000000	      9.31342187	   1310.82603371	     52.36972699	      0.85030821	      0.00000000	     -0.96673673	      0.00006289	      3.77098953	      0.00005640
    142.53000000	      0.00000000	      0.00000000	      0.00000000	      0.00000000	      0.00000000	      0.00000000	      0.00000000	      0.00000000	      0.00000000	     21.85364915	   1312.46460780	     47.32108572	      0.85084884	      0.00000000	     -0.96390583	      0.00006294	      5.55004868	      0.00005685
